<svg width="1600" height="900" viewBox="0 0 1600 900" fill="none" xmlns="http://www.w3.org/2000/svg">
  <rect width="1600" height="900" fill="#0B0E11"/>
  <rect x="72" y="72" width="1456" height="756" rx="28" fill="#14181D" stroke="#283039" stroke-width="2"/>
  <path d="M72 648C294 538 445 526 636 592C812 653 1005 661 1183 572C1321 503 1428 496 1528 531V828H72V648Z" fill="#16231F"/>
  <path d="M72 253C244 333 401 354 579 293C745 236 904 192 1092 249C1266 302 1403 302 1528 236V72H72V253Z" fill="#281820"/>
  <circle cx="1267" cy="270" r="210" fill="#ED4C7C" fill-opacity="0.16"/>
  <circle cx="1130" cy="562" r="248" fill="#54FFD5" fill-opacity="0.12"/>
  <rect x="194" y="203" width="482" height="494" rx="24" fill="#0F1318" stroke="#2C3840" stroke-width="2"/>
  <rect x="248" y="270" width="374" height="78" rx="14" fill="#161D23"/>
  <rect x="248" y="387" width="286" height="28" rx="14" fill="#27323A"/>
  <rect x="248" y="447" width="330" height="28" rx="14" fill="#27323A"/>
  <rect x="248" y="507" width="238" height="28" rx="14" fill="#27323A"/>
  <path d="M820 300C820 238.144 870.144 188 932 188H1227C1288.86 188 1339 238.144 1339 300V550C1339 611.856 1288.86 662 1227 662H932C870.144 662 820 611.856 820 550V300Z" fill="#10151A" stroke="#34434B" stroke-width="2"/>
  <path d="M938 536C1012.52 536 1073 475.516 1073 401C1073 475.516 1133.48 536 1208 536" stroke="#54FFD5" stroke-width="18" stroke-linecap="round"/>
  <circle cx="1073" cy="401" r="70" fill="#ED4C7C" fill-opacity="0.28" stroke="#ED4C7C" stroke-width="12"/>
  <circle cx="1073" cy="401" r="23" fill="#54FFD5"/>
  <text x="194" y="776" fill="#F2F5F7" font-family="Arial, Helvetica, sans-serif" font-size="74" font-weight="700">ADULT INDUSTRY</text>
  <text x="198" y="826" fill="#9AA7B2" font-family="Arial, Helvetica, sans-serif" font-size="31">interaction, status, and product loops</text>
</svg>
